# 
# 
mtllib concrete_roadblock_02.mtl
v 3.629390 0.564200 1.024654
v 3.809090 0.676020 0.888434
v 3.666510 0.348880 1.161374
v 3.779790 0.143300 1.149654
v -3.813970 0.506100 0.939696
v -3.735850 0.549060 1.037356
v -3.788569 0.296140 1.024656
v -3.692870 0.330320 1.128176
v -3.825690 0.949940 0.432136
v -3.749510 0.934080 0.474356
v 3.842290 1.008540 0.494134
v 3.627450 2.435300 -0.251966
v 3.752450 2.419680 -0.102046
v 3.650870 2.553460 -0.176886
v 3.770010 0.010500 -1.143306
v -3.728030 -0.000240 -1.151124
v 3.717290 -0.003180 1.154534
v -3.759270 -0.007080 1.139896
v 3.781730 0.996580 -0.508066
v -3.755370 0.995120 -0.495364
v -3.685050 2.421620 -0.252924
v -3.685050 2.554440 -0.180904
v 3.758290 0.536380 -1.045666
v -3.757330 0.528560 -1.054444
v 3.695790 0.376700 -1.149166
v -3.704590 0.367420 -1.149164
v -3.823730 0.361560 -1.091564
v -3.786630 -0.000240 -1.120844
v -3.784670 -0.003180 1.057856
v -3.821770 0.506580 -1.006584
v -3.821770 0.922600 -0.438484
v 3.699710 2.553460 0.168094
v -3.685050 2.553460 0.167836
v 3.842290 2.479240 0.071894
v 3.750490 2.555420 0.044714
v 3.748530 2.454840 0.253654
v 3.891110 2.425540 0.174314
v 3.781730 2.362060 -0.264886
v 3.895010 2.366940 -0.172726
v 3.881350 2.381580 0.016954
v 3.857910 0.964600 -0.412606
v 3.896970 2.191160 0.248654
v 3.898930 0.969480 0.432854
v 3.877450 0.474840 -0.911866
v 3.895010 0.605700 0.872314
v 3.895010 0.173580 1.122314
v 3.873530 0.316160 -0.981686
v 3.855950 0.004640 -0.960706
v 3.887210 0.022220 0.885494
v -3.685050 2.441160 0.260016
v 3.861810 2.202880 0.296634
v -3.796390 2.401120 -0.207644
v -3.796390 2.410880 0.153556
v -3.796390 2.503660 0.078616
v -3.796390 2.505620 -0.151864
vt 0.729004 0.281250
vt 0.732422 0.256836
vt 0.746582 0.296387
vt 0.743652 0.239258
vt 0.002888 0.279785
vt 0.005371 0.257813
vt 0.016891 0.279785
vt 0.020950 0.256836
vt 0.002432 0.338867
vt 0.016266 0.335449
vt 0.750000 0.340820
vt 0.729004 0.536621
vt 0.731445 0.523438
vt 0.741699 0.533447
vt 0.743164 0.003906
vt 0.737793 0.226074
vt 0.017609 0.003418
vt 0.014648 0.226074
vt 0.748535 0.676514
vt 0.009804 0.689941
vt 0.014046 0.547607
vt 0.731445 0.522705
vt 0.014046 0.531494
vt 0.748535 0.742920
vt 0.011024 0.759155
vt 0.750000 0.791016
vt 0.014420 0.807495
vt 0.742676 0.761597
vt 0.016510 0.777344
vt 0.760742 0.040527
vt 0.757324 0.004395
vt 0.971680 0.031738
vt 0.974609 0.001953
vt 0.769043 0.055176
vt 0.963379 0.053223
vt 0.913086 0.097656
vt 0.826172 0.095703
vt 0.734375 0.489746
vt 0.014046 0.496094
vt 0.750977 0.497070
vt 0.740234 0.501221
vt 0.740723 0.479004
vt 0.756836 0.482422
vt 0.749023 0.517578
vt 0.761719 0.540039
vt 0.744141 0.543457
vt 0.878906 0.511230
vt 0.923828 0.368652
vt 0.898438 0.508545
vt 0.856445 0.489746
vt 0.839844 0.368164
vt 0.861816 0.513672
vt 0.871582 0.521240
vt 0.892090 0.524170
vt 0.974121 0.320313
vt 0.796387 0.331055
vt 0.758301 0.242676
vt 0.758301 0.291016
vt 0.771973 0.288086
vt 0.981445 0.304688
vt 0.979492 0.273438
vt 0.795410 0.272949
vt 0.768066 0.226074
vt 0.014046 0.479004
vt 0.003031 0.226563
vt 0.765137 0.756958
vt 0.769043 0.791748
vt 0.002235 0.808472
vt 0.001262 0.775024
vt 0.751465 0.454590
vt 0.758301 0.455566
vt 0.759277 0.339844
vt 0.761719 0.675537
vt 0.765625 0.740234
vt 0.012222 0.217285
vt 0.011894 0.006348
vt 0.001134 0.548584
vt 0.000060 0.694092
vt 0.001077 0.758545
vt 0.000967 0.478027
vt 0.754395 0.200684
vt 0.751465 0.021973
vt 0.886230 0.244141
vt 0.850098 0.243164
vt 0.001781 0.493164
vt 0.001601 0.507080
vt 0.001614 0.527832
vt 0.001614 0.532227
vt 0.855469 0.253906
vt 0.878906 0.253418
vn 0.044435 0.654469 0.754753
vn 0.210456 0.294137 0.932279
vn 0.484664 0.538530 0.689230
vn 0.319041 0.233253 0.918577
vn -0.941923 0.205725 0.265358
vn -0.942900 0.033326 0.331309
vn -0.531480 0.458754 0.712058
vn -0.278756 0.226508 0.933256
vn -0.872890 0.206488 0.441969
vn -0.230689 0.530106 0.815912
vn 0.391827 0.414747 0.821223
vn 0.185400 0.424970 -0.885983
vn 0.322703 0.868068 -0.377178
vn 0.585589 0.702597 -0.404248
vn 0.415326 -0.738304 -0.531388
vn 0.201361 -0.634480 0.746208
vn -0.119755 -0.801202 -0.586261
vn -0.576556 -0.551958 0.602374
vn 0.443403 0.420515 -0.791528
vn -0.358562 0.462203 -0.811029
vn -0.249336 0.347667 -0.903836
vn -0.237129 0.837458 -0.492325
vn 0.417951 0.554125 -0.719871
vn -0.291452 0.564898 -0.771935
vn 0.258797 0.246132 -0.934019
vn -0.276345 0.194555 -0.941130
vn -0.878109 0.112430 -0.465041
vn -0.813807 -0.296762 -0.499619
vn -0.722037 -0.684469 0.100528
vn -0.884274 0.327677 -0.332652
vn -0.967467 0.122440 -0.221290
vn 0.218451 0.885525 0.409955
vn -0.338420 0.864467 0.371624
vn 0.686148 0.725730 -0.049654
vn 0.575610 0.796411 -0.185369
vn 0.236244 0.489517 0.839351
vn 0.833186 0.446822 0.325724
vn 0.695425 0.634083 -0.338023
vn 0.484542 0.532151 -0.694235
vn 0.918638 0.364116 -0.153172
vn 0.962432 0.086917 -0.257118
vn 0.956908 0.066897 0.282540
vn 0.913083 0.238563 0.330638
vn 0.910977 0.262734 -0.317850
vn 0.895047 0.252113 0.367779
vn 0.807978 -0.063112 0.585772
vn 0.944334 0.045564 -0.325755
vn 0.830531 -0.520402 -0.198401
vn 0.709250 -0.698904 0.091922
vn -0.335459 0.400555 0.852626
vn 0.577776 0.217994 0.786493
vn -0.910001 0.125248 -0.395154
vn -0.883480 0.240364 0.402051
vn -0.826716 0.545030 0.139500
vn -0.677389 0.547044 -0.491775
usemtl concrete_roadblock
s 1
f 1/1/1 3/2/2 2/3/3
f 3/2/2 4/4/4 2/3/3
f 5/5/5 7/6/6 6/7/7
f 7/6/6 8/8/8 6/7/7
f 9/9/9 5/5/5 10/10/10
f 5/5/5 6/7/7 10/10/10
f 1/1/1 2/3/3 11/11/11
f 12/12/12 14/13/13 13/14/14
f 15/15/15 17/16/16 16/17/17
f 17/16/16 18/18/18 16/17/17
f 19/19/19 20/20/20 12/12/12
f 20/20/20 21/21/21 12/12/12
f 14/22/13 12/12/12 22/23/22
f 12/12/12 21/21/21 22/23/22
f 19/19/19 23/24/23 20/20/20
f 23/24/23 24/25/24 20/20/20
f 15/26/15 16/27/17 25/28/25
f 16/27/17 26/29/26 25/28/25
f 27/30/27 28/31/28 7/32/6
f 28/31/28 29/33/29 7/32/6
f 30/34/30 27/30/27 5/35/5
f 27/30/27 7/32/6 5/35/5
f 9/36/9 31/37/31 5/35/5
f 31/37/31 30/34/30 5/35/5
f 32/38/32 14/22/13 33/39/33
f 14/22/13 22/23/22 33/39/33
f 34/40/34 35/41/35 32/38/32
f 32/38/32 36/42/36 34/40/34
f 36/42/36 37/43/37 34/40/34
f 14/22/13 35/41/35 13/44/14
f 35/41/35 34/40/34 13/44/14
f 13/14/14 39/45/38 38/46/39
f 40/47/40 41/48/41 39/49/38
f 40/47/40 42/50/42 41/48/41
f 42/50/42 43/51/43 41/48/41
f 42/50/42 40/47/40 37/52/37
f 40/47/40 34/53/34 37/52/37
f 39/49/38 13/54/14 40/47/40
f 13/54/14 34/53/34 40/47/40
f 44/55/44 41/48/41 45/56/45
f 41/48/41 43/51/43 45/56/45
f 46/57/46 45/58/45 4/4/4
f 45/58/45 2/3/3 4/4/4
f 46/59/46 47/60/47 45/56/45
f 47/60/47 44/55/44 45/56/45
f 48/61/48 47/60/47 49/62/49
f 47/60/47 46/59/46 49/62/49
f 49/63/49 46/57/46 17/16/16
f 46/57/46 4/4/4 17/16/16
f 50/64/50 10/10/10 36/42/36
f 10/10/10 11/11/11 36/42/36
f 3/2/2 1/1/1 8/8/8
f 1/1/1 6/7/7 8/8/8
f 29/65/29 18/18/18 7/6/6
f 18/18/18 8/8/8 7/6/6
f 13/14/14 38/46/39 12/12/12
f 4/4/4 3/2/2 17/16/16
f 25/28/25 47/66/47 15/26/15
f 47/66/47 48/67/48 15/26/15
f 16/27/17 28/68/28 26/29/26
f 28/68/28 27/69/27 26/29/26
f 36/42/36 51/70/51 37/43/37
f 51/70/51 42/71/42 37/43/37
f 11/11/11 2/3/3 43/72/43
f 2/3/3 45/58/45 43/72/43
f 43/72/43 42/71/42 11/11/11
f 42/71/42 51/70/51 11/11/11
f 41/73/41 44/74/44 19/19/19
f 44/74/44 23/24/23 19/19/19
f 26/29/26 24/25/24 25/28/25
f 24/25/24 23/24/23 25/28/25
f 33/39/33 50/64/50 32/38/32
f 50/64/50 36/42/36 32/38/32
f 19/19/19 38/46/39 41/73/41
f 38/46/39 39/45/38 41/73/41
f 18/18/18 29/75/29 16/17/17
f 29/75/29 28/76/28 16/17/17
f 21/21/21 20/20/20 52/77/52
f 20/20/20 31/78/31 52/77/52
f 25/28/25 23/24/23 47/66/47
f 23/24/23 44/74/44 47/66/47
f 31/78/31 20/20/20 30/79/30
f 20/20/20 24/25/24 30/79/30
f 10/10/10 50/64/50 9/9/9
f 50/64/50 53/80/53 9/9/9
f 17/16/16 15/15/15 49/81/49
f 15/15/15 48/82/48 49/81/49
f 53/83/53 52/84/52 9/36/9
f 52/84/52 31/37/31 9/36/9
f 26/29/26 27/69/27 24/25/24
f 27/69/27 30/79/30 24/25/24
f 50/64/50 33/39/33 53/80/53
f 33/39/33 54/85/54 53/80/53
f 33/39/33 22/23/22 54/86/54
f 22/23/22 55/87/55 54/86/54
f 22/23/22 21/21/21 55/88/55
f 21/21/21 52/77/52 55/88/55
f 38/46/39 19/19/19 12/12/12
f 51/70/51 36/42/36 11/11/11
f 6/7/7 1/1/1 10/10/10
f 1/1/1 11/11/11 10/10/10
f 18/18/18 17/16/16 8/8/8
f 17/16/16 3/2/2 8/8/8
f 35/41/35 14/22/13 32/38/32
f 55/89/55 52/84/52 54/90/54
f 52/84/52 53/83/53 54/90/54
